<mxfile host="app.diagrams.net" modified="2023-04-13T08:49:54.163Z" agent="Mozilla/5.0 (Macintosh; Intel Mac OS X 10_15_7) AppleWebKit/537.36 (KHTML, like Gecko) Chrome/112.0.0.0 Safari/537.36" etag="DTEt5ZPJm0rQTgO_c6Zr" version="21.1.6" type="github">
  <diagram name="Page-1" id="l_mZVGiUnxi1k-2atZCx">
    <mxGraphModel dx="1674" dy="771" grid="1" gridSize="10" guides="1" tooltips="1" connect="1" arrows="1" fold="1" page="1" pageScale="1" pageWidth="827" pageHeight="1169" math="0" shadow="0">
      <root>
        <mxCell id="0" />
        <mxCell id="1" parent="0" />
        <mxCell id="I9A3Iun1zgWqVqb629So-1" value="ex:SherlockHolmes" style="rounded=1;whiteSpace=wrap;html=1;" parent="1" vertex="1">
          <mxGeometry x="60" y="250" width="150" height="30" as="geometry" />
        </mxCell>
        <mxCell id="I9A3Iun1zgWqVqb629So-2" value="ex:EnolaHolmes" style="rounded=1;whiteSpace=wrap;html=1;" parent="1" vertex="1">
          <mxGeometry x="640" y="340" width="150" height="30" as="geometry" />
        </mxCell>
        <mxCell id="I9A3Iun1zgWqVqb629So-3" value="ex:Detective" style="rounded=1;whiteSpace=wrap;html=1;" parent="1" vertex="1">
          <mxGeometry x="230" y="390" width="150" height="30" as="geometry" />
        </mxCell>
        <mxCell id="I9A3Iun1zgWqVqb629So-4" value="ex:House" style="rounded=1;whiteSpace=wrap;html=1;" parent="1" vertex="1">
          <mxGeometry x="440" y="130" width="150" height="30" as="geometry" />
        </mxCell>
        <mxCell id="I9A3Iun1zgWqVqb629So-6" value="[g]" style="rounded=1;whiteSpace=wrap;html=1;" parent="1" vertex="1">
          <mxGeometry x="250" y="250" width="100" height="30" as="geometry" />
        </mxCell>
        <mxCell id="I9A3Iun1zgWqVqb629So-7" value="[h]" style="rounded=1;whiteSpace=wrap;html=1;" parent="1" vertex="1">
          <mxGeometry x="510" y="235" width="100" height="30" as="geometry" />
        </mxCell>
        <mxCell id="I9A3Iun1zgWqVqb629So-8" value="[i]" style="rounded=1;whiteSpace=wrap;html=1;" parent="1" vertex="1">
          <mxGeometry x="490" y="300" width="100" height="30" as="geometry" />
        </mxCell>
        <mxCell id="I9A3Iun1zgWqVqb629So-9" value="" style="endArrow=none;html=1;rounded=0;" parent="1" edge="1">
          <mxGeometry width="50" height="50" relative="1" as="geometry">
            <mxPoint x="130" y="250" as="sourcePoint" />
            <mxPoint x="180" y="200" as="targetPoint" />
          </mxGeometry>
        </mxCell>
        <mxCell id="I9A3Iun1zgWqVqb629So-10" value="" style="endArrow=none;html=1;rounded=0;exitX=0.453;exitY=1.033;exitDx=0;exitDy=0;exitPerimeter=0;" parent="1" source="I9A3Iun1zgWqVqb629So-1" edge="1">
          <mxGeometry width="50" height="50" relative="1" as="geometry">
            <mxPoint x="190" y="360" as="sourcePoint" />
            <mxPoint x="380" y="350" as="targetPoint" />
          </mxGeometry>
        </mxCell>
        <mxCell id="I9A3Iun1zgWqVqb629So-11" value="[e]" style="text;html=1;align=center;verticalAlign=middle;resizable=0;points=[];autosize=1;strokeColor=none;fillColor=none;" parent="1" vertex="1">
          <mxGeometry x="385" y="340" width="40" height="30" as="geometry" />
        </mxCell>
        <mxCell id="I9A3Iun1zgWqVqb629So-12" value="" style="endArrow=classic;html=1;rounded=0;entryX=0;entryY=0.5;entryDx=0;entryDy=0;" parent="1" source="I9A3Iun1zgWqVqb629So-11" target="I9A3Iun1zgWqVqb629So-2" edge="1">
          <mxGeometry width="50" height="50" relative="1" as="geometry">
            <mxPoint x="480" y="420" as="sourcePoint" />
            <mxPoint x="530" y="370" as="targetPoint" />
          </mxGeometry>
        </mxCell>
        <mxCell id="I9A3Iun1zgWqVqb629So-13" value="" style="endArrow=none;html=1;rounded=0;exitX=1;exitY=0.5;exitDx=0;exitDy=0;entryX=-0.037;entryY=0.521;entryDx=0;entryDy=0;entryPerimeter=0;" parent="1" source="I9A3Iun1zgWqVqb629So-7" target="I9A3Iun1zgWqVqb629So-14" edge="1">
          <mxGeometry width="50" height="50" relative="1" as="geometry">
            <mxPoint x="580" y="270" as="sourcePoint" />
            <mxPoint x="580" y="255" as="targetPoint" />
          </mxGeometry>
        </mxCell>
        <mxCell id="I9A3Iun1zgWqVqb629So-14" value="[a]" style="text;html=1;align=center;verticalAlign=middle;resizable=0;points=[];autosize=1;strokeColor=none;fillColor=none;" parent="1" vertex="1">
          <mxGeometry x="640" y="235" width="40" height="30" as="geometry" />
        </mxCell>
        <mxCell id="I9A3Iun1zgWqVqb629So-15" value="" style="endArrow=classic;html=1;rounded=0;entryX=0.5;entryY=0;entryDx=0;entryDy=0;" parent="1" source="I9A3Iun1zgWqVqb629So-14" target="I9A3Iun1zgWqVqb629So-2" edge="1">
          <mxGeometry width="50" height="50" relative="1" as="geometry">
            <mxPoint x="440" y="350" as="sourcePoint" />
            <mxPoint x="490" y="300" as="targetPoint" />
          </mxGeometry>
        </mxCell>
        <mxCell id="I9A3Iun1zgWqVqb629So-16" value="" style="endArrow=none;html=1;rounded=0;exitX=0.5;exitY=0;exitDx=0;exitDy=0;entryX=0.189;entryY=1.017;entryDx=0;entryDy=0;entryPerimeter=0;" parent="1" source="I9A3Iun1zgWqVqb629So-6" target="I9A3Iun1zgWqVqb629So-18" edge="1">
          <mxGeometry width="50" height="50" relative="1" as="geometry">
            <mxPoint x="320" y="240" as="sourcePoint" />
            <mxPoint x="360" y="200" as="targetPoint" />
          </mxGeometry>
        </mxCell>
        <mxCell id="I9A3Iun1zgWqVqb629So-17" value="" style="endArrow=classic;html=1;rounded=0;entryX=0;entryY=0.5;entryDx=0;entryDy=0;" parent="1" target="I9A3Iun1zgWqVqb629So-4" edge="1">
          <mxGeometry width="50" height="50" relative="1" as="geometry">
            <mxPoint x="370" y="170" as="sourcePoint" />
            <mxPoint x="440" y="140" as="targetPoint" />
          </mxGeometry>
        </mxCell>
        <mxCell id="I9A3Iun1zgWqVqb629So-18" value="[c]" style="text;html=1;align=center;verticalAlign=middle;resizable=0;points=[];autosize=1;strokeColor=none;fillColor=none;" parent="1" vertex="1">
          <mxGeometry x="345" y="175" width="40" height="30" as="geometry" />
        </mxCell>
        <mxCell id="I9A3Iun1zgWqVqb629So-19" value="" style="endArrow=classic;html=1;rounded=0;exitX=0.622;exitY=0.043;exitDx=0;exitDy=0;exitPerimeter=0;entryX=0;entryY=0.25;entryDx=0;entryDy=0;" parent="1" source="I9A3Iun1zgWqVqb629So-20" target="I9A3Iun1zgWqVqb629So-4" edge="1">
          <mxGeometry width="50" height="50" relative="1" as="geometry">
            <mxPoint x="240" y="180" as="sourcePoint" />
            <mxPoint x="290" y="130" as="targetPoint" />
          </mxGeometry>
        </mxCell>
        <mxCell id="I9A3Iun1zgWqVqb629So-20" value="[b]" style="text;html=1;align=center;verticalAlign=middle;resizable=0;points=[];autosize=1;strokeColor=none;fillColor=none;" parent="1" vertex="1">
          <mxGeometry x="170" y="175" width="40" height="30" as="geometry" />
        </mxCell>
        <mxCell id="I9A3Iun1zgWqVqb629So-21" value="" style="endArrow=none;html=1;rounded=0;exitX=1;exitY=0.25;exitDx=0;exitDy=0;entryX=-0.019;entryY=0.521;entryDx=0;entryDy=0;entryPerimeter=0;" parent="1" source="I9A3Iun1zgWqVqb629So-6" target="I9A3Iun1zgWqVqb629So-22" edge="1">
          <mxGeometry width="50" height="50" relative="1" as="geometry">
            <mxPoint x="390" y="250" as="sourcePoint" />
            <mxPoint x="380" y="250" as="targetPoint" />
          </mxGeometry>
        </mxCell>
        <mxCell id="I9A3Iun1zgWqVqb629So-22" value="rdf:subject" style="text;html=1;align=center;verticalAlign=middle;resizable=0;points=[];autosize=1;strokeColor=none;fillColor=none;" parent="1" vertex="1">
          <mxGeometry x="380" y="235" width="80" height="30" as="geometry" />
        </mxCell>
        <mxCell id="I9A3Iun1zgWqVqb629So-23" value="" style="endArrow=classic;html=1;rounded=0;entryX=0;entryY=0.5;entryDx=0;entryDy=0;" parent="1" source="I9A3Iun1zgWqVqb629So-22" target="I9A3Iun1zgWqVqb629So-7" edge="1">
          <mxGeometry width="50" height="50" relative="1" as="geometry">
            <mxPoint x="440" y="230" as="sourcePoint" />
            <mxPoint x="490" y="180" as="targetPoint" />
          </mxGeometry>
        </mxCell>
        <mxCell id="I9A3Iun1zgWqVqb629So-24" value="" style="endArrow=none;html=1;rounded=0;exitX=0.5;exitY=1;exitDx=0;exitDy=0;" parent="1" source="I9A3Iun1zgWqVqb629So-6" edge="1">
          <mxGeometry width="50" height="50" relative="1" as="geometry">
            <mxPoint x="370" y="320" as="sourcePoint" />
            <mxPoint x="350" y="300" as="targetPoint" />
          </mxGeometry>
        </mxCell>
        <mxCell id="I9A3Iun1zgWqVqb629So-25" value="[d]" style="text;html=1;align=center;verticalAlign=middle;resizable=0;points=[];autosize=1;strokeColor=none;fillColor=none;" parent="1" vertex="1">
          <mxGeometry x="345" y="290" width="40" height="30" as="geometry" />
        </mxCell>
        <mxCell id="I9A3Iun1zgWqVqb629So-26" value="" style="endArrow=classic;html=1;rounded=0;exitX=1.009;exitY=0.449;exitDx=0;exitDy=0;exitPerimeter=0;entryX=0;entryY=0.5;entryDx=0;entryDy=0;" parent="1" source="I9A3Iun1zgWqVqb629So-25" target="I9A3Iun1zgWqVqb629So-8" edge="1">
          <mxGeometry width="50" height="50" relative="1" as="geometry">
            <mxPoint x="410" y="320" as="sourcePoint" />
            <mxPoint x="460" y="270" as="targetPoint" />
          </mxGeometry>
        </mxCell>
        <mxCell id="I9A3Iun1zgWqVqb629So-28" value="" style="endArrow=none;html=1;rounded=0;entryX=0.25;entryY=1;entryDx=0;entryDy=0;" parent="1" target="I9A3Iun1zgWqVqb629So-1" edge="1">
          <mxGeometry width="50" height="50" relative="1" as="geometry">
            <mxPoint x="135" y="350" as="sourcePoint" />
            <mxPoint x="140" y="310" as="targetPoint" />
          </mxGeometry>
        </mxCell>
        <mxCell id="I9A3Iun1zgWqVqb629So-29" value="[a]" style="text;html=1;align=center;verticalAlign=middle;resizable=0;points=[];autosize=1;strokeColor=none;fillColor=none;" parent="1" vertex="1">
          <mxGeometry x="130" y="345" width="40" height="30" as="geometry" />
        </mxCell>
        <mxCell id="I9A3Iun1zgWqVqb629So-30" value="" style="endArrow=classic;html=1;rounded=0;exitX=0.837;exitY=1.06;exitDx=0;exitDy=0;exitPerimeter=0;entryX=0;entryY=0.5;entryDx=0;entryDy=0;" parent="1" source="I9A3Iun1zgWqVqb629So-29" target="I9A3Iun1zgWqVqb629So-3" edge="1">
          <mxGeometry width="50" height="50" relative="1" as="geometry">
            <mxPoint x="175" y="390" as="sourcePoint" />
            <mxPoint x="225" y="340" as="targetPoint" />
          </mxGeometry>
        </mxCell>
        <mxCell id="I9A3Iun1zgWqVqb629So-31" value="" style="endArrow=none;html=1;rounded=0;exitX=1;exitY=0.5;exitDx=0;exitDy=0;" parent="1" source="I9A3Iun1zgWqVqb629So-3" edge="1">
          <mxGeometry width="50" height="50" relative="1" as="geometry">
            <mxPoint x="410" y="440" as="sourcePoint" />
            <mxPoint x="430" y="405" as="targetPoint" />
          </mxGeometry>
        </mxCell>
        <mxCell id="I9A3Iun1zgWqVqb629So-32" value="[f]" style="text;html=1;align=center;verticalAlign=middle;resizable=0;points=[];autosize=1;strokeColor=none;fillColor=none;" parent="1" vertex="1">
          <mxGeometry x="435" y="390" width="30" height="30" as="geometry" />
        </mxCell>
        <mxCell id="I9A3Iun1zgWqVqb629So-33" value="" style="endArrow=classic;html=1;rounded=0;entryX=0.5;entryY=1;entryDx=0;entryDy=0;" parent="1" source="I9A3Iun1zgWqVqb629So-32" target="I9A3Iun1zgWqVqb629So-2" edge="1">
          <mxGeometry width="50" height="50" relative="1" as="geometry">
            <mxPoint x="480" y="400" as="sourcePoint" />
            <mxPoint x="440" y="270" as="targetPoint" />
          </mxGeometry>
        </mxCell>
      </root>
    </mxGraphModel>
  </diagram>
</mxfile>
